#!OML:ASF F:\VICON\USERDATA\INSTALL\rory3\rory3.ASF
:FULLY-SPECIFIED
:DEGREES
81
root 0.4639476384932688 17.903320240951768 32.665232179861505 -4.051615749069093 -4.952692457685755 -1.3064751039308944
lfemur -17.54915020116804 -1.4272155346301698 -21.883626514426478
ltibia 27.057483414382478
lfoot -6.654331891258022 -1.8973464841976289
ltoes -6.159629098827038
rfemur -6.2546203049258144 1.501162307739404 23.331247201380872
rtibia 67.80761216192047
rfoot 12.415686092043456 -0.8323460710919299
rtoes 21.263215640102985
lowerback nan 1.7113521369379654 1.6542069814228566
upperback 0.18501502840695835 2.574748738766515 0.47619270289307347
thorax -5.438068607780785 1.2778315397401518 -0.6389456011970027
lowerneck -15.99142105730909 -3.0917827682556625 -2.143701162618191
upperneck 20.483658537798743 -4.213868542524954 1.9696788709239539
head 9.175401690732816 -1.9314041097676773 0.4974362156915611
lclavicle 1.0549189388114093e-15 -7.620294216494018e-16
lhumerus -35.30221808656362 9.594830847773817 78.49146287025836
lradius 19.641145779762184
lwrist 3.18970765774695
lhand -28.132269190600407 18.88992577213844
lfingers nan
lthumb -1.9656583511984118 47.51693313229834
rclavicle -2.378110482076846e-16 -1.7725013004219631e-15
rhumerus -25.828187590034922 -15.083876711419174 -81.83572264561687
rradius 28.646658233178965
rwrist -0.8619955398089134
rhand -18.183829542403547 nan
rfingers nan
rthumb 7.870545263998509 -7.433802983198506
82
root 0.4791251922644063 17.909712973732955 33.24679873304183 -4.082281453910913 -4.4309022632593695 -0.8280734812046324
lfemur -14.245721669259154 -2.1441700184916264 -22.87229279654074
ltibia 25.995162608238743
lfoot -8.257719960068869 -0.6330091704223029
ltoes -5.312527369448022
rfemur -11.003676011159806 0.805308200994967 22.6747504975632
rtibia 72.7267583913733
rfoot 7.493224670515836 -3.534535670135635
rtoes 18.00923041943968
lowerback nan 1.284188863822737 0.9767752754901147
upperback 0.24575035628237585 1.9831692450065832 0.4891998184407841
thorax -5.551788252699726 1.003797752541526 -0.1495437701243737
lowerneck -16.029241445721436 -3.0200369221873054 -2.321914514006347
upperneck 20.503400080904314 -4.063194913669536 1.9893241421963659
head 9.185636908863321 -1.8716752270744397 0.5540066092484742
lclavicle 1.0160601361538236e-15 -7.702301458116316e-16
lhumerus -34.04951424009521 8.138249809444373 78.8750957644992
lradius 20.62713608942125
lwrist 4.19515970809227
lhand -28.607957818012633 18.464458105376156
lfingers nan
lthumb -2.3727590200643056 47.10584181567036
rclavicle -2.8461094294622576e-16 -1.7900359958297114e-15
rhumerus -26.66762179663516 -15.91784523931413 -81.66080703078143
rradius 28.33804373671996
rwrist -0.8186159144686886
rhand -18.172472398358728 nan
rfingers nan
rthumb 7.890913556888081 -7.5351183937110084
83
root 0.48115446309451454 17.87834629015595 34.07678200237971 -4.016697250359071 -4.0411012310799155 -0.4684893446273497
lfemur -11.24542274986301 -3.010989797522162 -23.73151490288548
ltibia 25.085203960089007
lfoot -9.632258558320244 0.39467319221282393
ltoes -4.806491124581567
rfemur -15.610990116372582 0.2815199197745817 22.406933256179748
rtibia 74.95446448807448
rfoot 3.0595265727339545 -4.984573454081724
rtoes 15.147612158795615
lowerback nan 0.8949793661461625 0.41581422362484177
upperback 0.3142502129344237 1.4017967731522631 0.5570044534284888
thorax -5.605361686491198 0.7187225527914445 0.31652379543592013
lowerneck -16.10721494923998 -2.9617261335525575 -2.5077164718052014
upperneck 20.516687194374853 -3.9285075382865755 2.0101140525967445
head 9.198646278357309 -1.8183316677085675 0.6087325389044832
lclavicle 8.828889129919122e-16 -8.433891060808754e-16
lhumerus -32.670629985530226 6.508847762172285 79.225460492601
lradius 21.758788854687452
lwrist 5.003884374301421
lhand -28.63966624027596 18.917902792880913
lfingers nan
lthumb -2.4090204063063654 47.47324439428763
rclavicle -3.7426753765073427e-16 -1.836701196346331e-15
rhumerus -27.559425558661463 -16.56591503467661 -81.44004296344542
rradius 28.16355515018715
rwrist -0.9107170600984613
rhand -18.157399601938536 nan
rfingers nan
rthumb 7.916781464294101 -7.593000745635582
84
root 0.47434299425089466 17.823055833212948 34.802825339426306 -3.8643955892928683 -3.4567682254596104 0.08511379368789163
lfemur -8.940878071877123 -3.9414294451994043 -24.89961180501904
ltibia 25.06809296173834
lfoot -11.205804798481296 0.9828559401768016
ltoes -4.093758858096243
rfemur -19.590124846127193 0.0045550189024257115 22.062797661366247
rtibia 74.25112143250294
rfoot -1.2439787189589424 -5.441635019927106
rtoes 12.713865356387668
lowerback nan 0.5342867665454106 -0.34742045243128783
upperback 0.38395074002611357 0.8352577099881039 0.6265824845397854
thorax -5.603540002583441 0.44571651181425964 0.8054553318038415
lowerneck -16.214769221057914 -2.9223307528560833 -2.666936095946637
upperneck 20.51049028862651 -3.826673078840987 2.035333391404947
head 9.209025243739923 -1.7779026300665188 0.657715570749504
lclavicle 7.786270908214869e-16 -9.065595953807632e-16
lhumerus -31.228154796844343 4.860672102352742 79.50587448244826
lradius 23.0099654807262
lwrist 5.615608539788831
lhand -28.374811299909496 19.878541297900576
lfingers nan
lthumb -2.173339376644225 48.27855864195631
rclavicle -4.464083083595502e-16 -1.8740155580026756e-15
rhumerus -28.47700343261957 -17.008999817193498 -81.18868295248153
rradius 28.086318875083688
rwrist -1.049002790545078
rhand -18.167593720163293 nan
rfingers nan
rthumb 7.95916235051574 -7.583290410783645
